M48
;Layer_Color=9474304
;FILE_FORMAT=4:4
METRIC,LZ
;TYPE=PLATED
T1F00S00C0.9000
T3F00S00C1.2000
%
T01
X0005207Y0003175
Y0005715
X00139797Y0006731
Y0004191
X0014351Y0010668
Y0013081
X0021717
Y0010668
X0027813Y0013208
X00381Y0012446
Y0008509
X003556
Y0002794
X00381
X0030226Y00042038
X0024765
X0021717Y0015494
Y0017907
X0014351
Y0015494
X00150337Y00222122
X00175737
X0027813Y0015748
X00381Y0014986
X0009993Y0022733
X0007493
X0004953
T03
X0004572Y0009271
Y0014291
Y0019311
M30
