G04*
G04 #@! TF.GenerationSoftware,Altium Limited,Altium Designer,20.0.13 (296)*
G04*
G04 Layer_Physical_Order=2*
G04 Layer_Color=16711680*
%FSLAX44Y44*%
%MOMM*%
G71*
G01*
G75*
%ADD12C,0.2540*%
%ADD18C,0.5000*%
%ADD19R,1.5000X1.5000*%
%ADD20C,1.5000*%
%ADD21R,1.5000X1.5000*%
%ADD22C,2.5000*%
%ADD23C,0.3000*%
D12*
X142875Y131445D02*
X143510Y130810D01*
X142240Y132080D02*
X142875Y131445D01*
D18*
X303530Y132080D02*
X370674D01*
X256540Y180340D02*
X309880D01*
X255270Y179070D02*
X256540Y180340D01*
X317500Y146050D02*
Y172720D01*
X309880Y180340D02*
X317500Y172720D01*
X303530Y132080D02*
X317500Y146050D01*
X278130Y132080D02*
X303530D01*
X340360Y12700D02*
X355600Y27940D01*
X307340Y12700D02*
X340360D01*
X154940Y86360D02*
X163830Y95250D01*
X128270Y86360D02*
X154940D01*
X163830Y95250D02*
Y146050D01*
X139797Y67310D02*
X156210D01*
X177800Y88900D02*
Y115570D01*
X156210Y67310D02*
X177800Y88900D01*
X113030Y57539D02*
Y71120D01*
X115959Y54610D02*
X168910D01*
X113030Y57539D02*
X115959Y54610D01*
X113030Y71120D02*
X128270Y86360D01*
X168910Y54610D02*
X194310Y80010D01*
X143510Y154940D02*
X146050Y152400D01*
X157480D01*
X163830Y146050D01*
X215257Y128897D02*
X217170Y130810D01*
X194310Y80010D02*
Y113030D01*
X210177Y128897D02*
X215257D01*
X194310Y113030D02*
X210177Y128897D01*
X177800Y115570D02*
X217170Y154940D01*
X273130Y152480D02*
X278130Y157480D01*
X262970Y152480D02*
X273130D01*
X241300Y130810D02*
X262970Y152480D01*
X217170Y130810D02*
X241300D01*
X252730Y106680D02*
X278130Y132080D01*
X217170Y106680D02*
X252730D01*
X370674Y132080D02*
X378294Y124460D01*
X381000D01*
X302260Y42038D02*
Y107950D01*
X278130Y132080D02*
X302260Y107950D01*
X139797Y41910D02*
X169007Y12700D01*
X218312D02*
X247650Y42038D01*
X169007Y12700D02*
X218312D01*
X193040Y42038D02*
X206882Y55880D01*
X264160D01*
X307340Y12700D01*
X355600Y27940D02*
Y85090D01*
X381000Y27940D02*
Y85090D01*
X383540Y147320D02*
Y149860D01*
X393073Y87003D02*
X401320Y95250D01*
X381000Y85090D02*
X382913Y87003D01*
X393073D01*
X401320Y95250D02*
Y139700D01*
X383540Y147320D02*
X386000Y144860D01*
X396160D01*
X401320Y139700D01*
X381000Y149860D02*
X383540D01*
X330200Y200660D02*
X381000Y149860D01*
X238760Y200660D02*
X330200D01*
X217170Y179070D02*
X238760Y200660D01*
X150337Y188603D02*
Y222122D01*
X143510Y181776D02*
X150337Y188603D01*
X143510Y179070D02*
Y181776D01*
X138510Y159940D02*
X143510Y154940D01*
X127080Y159940D02*
X138510D01*
X74930Y212090D02*
X127080Y159940D01*
X74930Y212090D02*
Y227330D01*
X45720Y223520D02*
X49530Y227330D01*
X45720Y193110D02*
Y223520D01*
X133985Y131445D02*
X142875D01*
X45720Y142910D02*
X122520D01*
X133985Y131445D01*
X52070Y57150D02*
Y80948D01*
X45720Y87298D02*
X52070Y80948D01*
X45720Y87298D02*
Y92710D01*
X52070Y57150D02*
X53340Y58420D01*
Y63500D01*
X215900Y180340D02*
X217170Y179070D01*
X215900Y180340D02*
Y243840D01*
X45720Y261620D02*
X198120D01*
X215900Y243840D01*
X8890Y224790D02*
X45720Y261620D01*
X8890Y59690D02*
Y224790D01*
Y59690D02*
X36830Y31750D01*
X52070D01*
X83820Y69850D02*
X119380Y105410D01*
X142989D01*
X83820Y46990D02*
Y69850D01*
X68580Y31750D02*
X83820Y46990D01*
X52070Y31750D02*
X68580D01*
D19*
X381000Y27940D02*
D03*
X175737Y222122D02*
D03*
X355600Y85090D02*
D03*
X49530Y227330D02*
D03*
X193040Y42038D02*
D03*
D20*
X355600Y27940D02*
D03*
X52070Y57150D02*
D03*
X381000Y124460D02*
D03*
X278130Y132080D02*
D03*
X150337Y222122D02*
D03*
X381000Y85090D02*
D03*
X139797Y41910D02*
D03*
X74930Y227330D02*
D03*
X143510Y130810D02*
D03*
Y179070D02*
D03*
X217170D02*
D03*
Y130810D02*
D03*
X302260Y42038D02*
D03*
X247650D02*
D03*
X99930Y227330D02*
D03*
D21*
X52070Y31750D02*
D03*
X381000Y149860D02*
D03*
X278130Y157480D02*
D03*
X139797Y67310D02*
D03*
X143510Y106680D02*
D03*
Y154940D02*
D03*
X217170D02*
D03*
Y106680D02*
D03*
D22*
X45720Y92710D02*
D03*
Y142910D02*
D03*
Y193110D02*
D03*
D23*
X99930Y227330D02*
Y228200D01*
X116840Y245110D02*
X168910D01*
X99930Y228200D02*
X116840Y245110D01*
X168910D02*
X175737Y238283D01*
Y222122D02*
Y238283D01*
Y190023D02*
Y222122D01*
X193040Y172720D02*
Y172720D01*
X175737Y190023D02*
X193040Y172720D01*
Y172720D02*
X198230Y167530D01*
X243730D02*
X255270Y179070D01*
X198230Y167530D02*
X243730D01*
M02*
