G04*
G04 #@! TF.GenerationSoftware,Altium Limited,Altium Designer,20.0.13 (296)*
G04*
G04 Layer_Color=65535*
%FSLAX44Y44*%
%MOMM*%
G71*
G01*
G75*
%ADD10C,0.2500*%
%ADD11C,0.2000*%
%ADD12C,0.2540*%
%ADD13C,0.1500*%
D10*
X382250Y7440D02*
G03*
X382250Y7440I-1250J0D01*
G01*
X32820Y31750D02*
G03*
X32820Y31750I-1250J0D01*
G01*
X299880Y157480D02*
G03*
X299880Y157480I-1250J0D01*
G01*
X176987Y201623D02*
G03*
X176987Y201623I-1250J0D01*
G01*
X356850Y105590D02*
G03*
X356850Y105590I-1250J0D01*
G01*
X161548Y67310D02*
G03*
X161548Y67310I-1250J0D01*
G01*
X50780Y247830D02*
G03*
X50780Y247830I-1250J0D01*
G01*
X129520Y109220D02*
G03*
X129520Y109220I-1250J0D01*
G01*
X181590Y87937D02*
G03*
X181590Y87937I-1250J0D01*
G01*
D11*
X341600Y41940D02*
X395000D01*
X341600Y13940D02*
X395000D01*
X341600D02*
Y41940D01*
X395000Y13940D02*
Y41940D01*
X38070Y17750D02*
X66070D01*
X38070Y71150D02*
X66070D01*
X38070Y17750D02*
Y71150D01*
X66070Y17750D02*
Y71150D01*
X393700Y111760D02*
Y162560D01*
X368300D02*
X393700D01*
X368300Y111760D02*
Y162560D01*
Y111760D02*
X393700D01*
X264130Y118080D02*
Y171480D01*
X292130Y118080D02*
Y171480D01*
X264130Y118080D02*
X292130D01*
X264130Y171480D02*
X292130D01*
X136337Y236122D02*
X189737D01*
X136337Y208123D02*
X189737D01*
X136337D02*
Y236122D01*
X189737Y208123D02*
Y236122D01*
X395000Y71090D02*
Y99090D01*
X341600D02*
X395000D01*
X341600Y71090D02*
Y99090D01*
Y71090D02*
X395000D01*
X125798Y81310D02*
X153798D01*
X125798Y27910D02*
X153798D01*
Y81310D01*
X125798Y27910D02*
Y81310D01*
X35530Y213330D02*
X88930D01*
X35530Y241330D02*
X88930D01*
Y213330D02*
Y241330D01*
X35530Y213330D02*
Y241330D01*
X133350Y93980D02*
X228600D01*
X133350Y195580D02*
X228600D01*
X133350Y93980D02*
Y195580D01*
X228600Y93980D02*
Y195580D01*
X166340Y6478D02*
X331470D01*
Y81438D01*
X166340Y6478D02*
Y81438D01*
X331470D01*
D12*
X325120Y48260D02*
Y63495D01*
X330198Y58417D01*
X335277Y63495D01*
Y48260D01*
X342894D02*
X347973D01*
X350512Y50799D01*
Y55877D01*
X347973Y58417D01*
X342894D01*
X340355Y55877D01*
Y50799D01*
X342894Y48260D01*
X358129Y60956D02*
Y58417D01*
X355590D01*
X360668D01*
X358129D01*
Y50799D01*
X360668Y48260D01*
X370825D02*
X375904D01*
X378443Y50799D01*
Y55877D01*
X375904Y58417D01*
X370825D01*
X368286Y55877D01*
Y50799D01*
X370825Y48260D01*
X383521Y58417D02*
Y48260D01*
Y53338D01*
X386060Y55877D01*
X388600Y58417D01*
X391139D01*
X398756Y48260D02*
X403834D01*
X401295D01*
Y63495D01*
X398756Y60956D01*
X85090Y20320D02*
X69855D01*
Y27938D01*
X72394Y30477D01*
X77473D01*
X80012Y27938D01*
Y20320D01*
Y25398D02*
X85090Y30477D01*
Y35555D02*
Y40633D01*
Y38094D01*
X69855D01*
X72394Y35555D01*
X369824Y198115D02*
Y182880D01*
X377441D01*
X379981Y185419D01*
Y187958D01*
X377441Y190497D01*
X369824D01*
X377441D01*
X379981Y193037D01*
Y195576D01*
X377441Y198115D01*
X369824D01*
X385059Y182880D02*
X390137D01*
X387598D01*
Y198115D01*
X385059Y195576D01*
X275841Y192782D02*
X273302Y195321D01*
X268223D01*
X265684Y192782D01*
Y182625D01*
X268223Y180086D01*
X273302D01*
X275841Y182625D01*
X280919Y180086D02*
X285997D01*
X283458D01*
Y195321D01*
X280919Y192782D01*
X148048Y257424D02*
X145509Y259964D01*
X140431D01*
X137892Y257424D01*
Y247268D01*
X140431Y244729D01*
X145509D01*
X148048Y247268D01*
X163283Y244729D02*
X153126D01*
X163283Y254885D01*
Y257424D01*
X160744Y259964D01*
X155666D01*
X153126Y257424D01*
X343027Y130932D02*
Y115697D01*
X350644D01*
X353184Y118236D01*
Y128393D01*
X350644Y130932D01*
X343027D01*
X358262Y115697D02*
X363340D01*
X360801D01*
Y130932D01*
X358262Y128393D01*
X127352Y89916D02*
Y105151D01*
X134969D01*
X137508Y102612D01*
Y97534D01*
X134969Y94994D01*
X127352D01*
X132430D02*
X137508Y89916D01*
X152743D02*
X142586D01*
X152743Y100073D01*
Y102612D01*
X150204Y105151D01*
X145126D01*
X142586Y102612D01*
X47114Y270633D02*
X44574Y273172D01*
X39496D01*
X36957Y270633D01*
Y268094D01*
X39496Y265555D01*
X44574D01*
X47114Y263015D01*
Y260476D01*
X44574Y257937D01*
X39496D01*
X36957Y260476D01*
X52192Y257937D02*
X57270D01*
X54731D01*
Y273172D01*
X52192Y270633D01*
X128270Y219451D02*
Y206755D01*
X130809Y204216D01*
X135887D01*
X138427Y206755D01*
Y219451D01*
X143505Y204216D02*
X148583D01*
X146044D01*
Y219451D01*
X143505Y216912D01*
X167894Y113377D02*
Y98142D01*
X178051D01*
X183129D02*
X188207D01*
X185668D01*
Y113377D01*
X183129Y110838D01*
D13*
X380978Y173860D02*
Y166196D01*
X384810Y170028D02*
X377146D01*
M02*
